<svg preserveAspectRatio="none" width="100%" height="100%" overflow="visible" style="display: block;" viewBox="0 0 94.9999 95.9999" fill="none" xmlns="http://www.w3.org/2000/svg">
<path id="Vector" d="M54.5085 1.59C60.3752 3.09288 68.8101 5.29129 69.3949 5.58612C70.3947 6.09014 71.1334 7.34401 71.3798 7.58418C71.6262 7.82436 72.0545 8.27568 72.3722 8.58321C73.6349 10.2338 76.0842 11.9595 79.3192 18.5735C80.7888 21.5781 83.2477 25.9624 85.2738 29.5629C87.2998 33.1633 87.4788 34.3758 89.2435 37.5551C91.0082 40.7344 92.8717 47.8508 93.2132 51.5415C93.8686 58.6249 93.3428 62.9771 92.2208 64.5289C90.9606 66.2719 88.3435 70.7195 87.2586 73.5202C85.9264 76.9595 82.8056 80.2975 80.3116 82.5115C77.3441 85.1459 75.0343 86.6087 69.3949 87.5066C64.4465 88.2946 55.22 88.993 49.5464 90.5037C41.3206 92.694 38.0284 94.5026 35.6524 94.4999C31.9351 94.4956 28.1165 93.9374 25.7281 92.5018C21.8081 90.1458 19.8633 88.7681 18.7811 87.5066C17.1959 85.659 15.2508 84.0182 13.8189 82.5115C11.2584 79.8171 9.74935 75.2536 6.87194 71.5222C5.12456 69.2561 3.83142 67.7721 2.90222 64.5289C2.43668 62.9041 2.48045 59.2475 1.90979 53.5396C1.58025 50.2434 1.18164 45.9632 1.90979 40.5522C2.30397 37.6231 3.23696 34.64 3.89465 32.56C4.8549 29.523 4.57562 28.1449 6.87194 25.5667C8.84212 23.3548 12.5991 19.2926 16.7962 15.5764C20.9934 11.8602 26.3725 8.75268 29.6978 6.58515C33.0231 4.41763 34.7656 3.16739 36.6448 2.58903C40.2301 1.48559 42.5611 1.37456 45.5766 1.59C50.4829 1.94052 53.5836 1.35307 54.5085 1.59Z" stroke="var(--stroke-0, black)" stroke-width="3" stroke-linecap="round"/>
</svg>
