<svg preserveAspectRatio="none" width="100%" height="100%" overflow="visible" style="display: block;" viewBox="0 0 529 642" fill="none" xmlns="http://www.w3.org/2000/svg">
<g id="Diagram circle right">
<path d="M527.918 261.39C526.288 230.305 519.909 217.304 514.92 208.467C502.582 186.579 489.204 164.351 485.925 153.547C484.815 149.912 481.955 134.404 474.926 109.611C464.698 73.5429 444.671 55.1896 435.932 48.699C431.973 45.7533 417.705 39.2228 394.939 28.728C373.832 19.0022 349.826 14.8782 326.949 7.7585C316.031 4.36344 306.223 1.86706 287.955 0.768659C269.678 -0.329745 242.692 -0.179962 221.966 0.768659C201.239 1.71728 187.611 3.8342 169.974 7.7585C152.346 11.6828 130.81 17.0051 112.982 22.7367C63.4702 41.5694 56.7712 45.953 52.9918 47.7005C51.0821 48.4494 51.3021 49.418 47.9926 51.6947C44.0132 54.4307 26.7859 64.7557 0.999845 79.654C11.6982 104.049 21.4767 133.676 40.9936 172.519C60.7406 211.812 129.18 331.348 109.983 410.174C106.294 425.312 97.6149 436.735 84.9868 454.11C61.7104 486.143 30.8152 522.211 0 549.971C21.2367 567.026 39.2739 580.137 49.9923 588.914C62.6203 599.249 86.0067 596.603 100.984 602.894C115.392 608.945 125.93 616.764 145.977 618.871C162.525 620.618 191.27 624.842 211.967 628.856C244.152 635.107 257.32 641.188 263.959 641.837C276.877 643.105 303.393 636.984 341.947 622.865C383.781 607.557 405.007 589.693 413.936 582.923C433.053 568.404 451.38 550.799 460.929 535.991C467.158 526.335 469.197 512.355 474.926 489.059C478.416 474.88 486.695 457.046 494.923 439.132C511.191 403.713 523.739 379.468 526.918 366.238C528.298 360.496 528.738 356.422 528.918 337.28C529.098 318.138 529.068 283.478 527.918 261.39V261.39Z" fill="#F3DB9B"/>
</g>
</svg>
