<svg preserveAspectRatio="none" width="100%" height="100%" overflow="visible" style="display: block;" viewBox="0 0 82.533 60.8125" fill="none" xmlns="http://www.w3.org/2000/svg">
<g id="Group">
<path id="Vector" fill-rule="evenodd" clip-rule="evenodd" d="M19.3126 11.7474C18.5855 12.7843 17.9357 13.8982 17.3787 15.0817C17.0538 15.7645 16.4814 17.3546 16.5781 18.5061C16.6516 19.3689 16.9919 20.0707 17.6727 20.4847C18.7595 21.1475 19.6298 21.0663 20.2989 20.6657C20.941 20.2823 21.4515 19.5351 21.7687 18.5256C22.3334 16.7234 22.2676 13.9989 21.9814 12.3577C22.755 11.4114 23.602 10.5509 24.5032 9.78318C31.4343 3.8873 41.6027 6.09007 49.4273 14.9058C52.1695 17.9942 53.473 24.4869 54.1576 31.4847C55.2367 42.4651 54.6218 54.7289 54.5367 58.3218C54.5173 59.2672 54.6024 59.8279 54.6411 59.9397C54.8577 60.5575 55.2445 60.7199 55.5114 60.7803C55.8865 60.8638 56.1843 60.7757 56.428 60.6225C56.7529 60.4183 57.0237 60.06 57.1474 59.5021C57.2093 59.2171 57.2286 58.8212 57.2209 58.3984C57.2132 58.1482 57.1629 57.8753 57.2055 57.6961C57.5071 56.4369 57.8707 55.2065 58.2226 53.9682C59.4062 49.8026 60.9417 45.8993 62.6397 42.0001C68.0507 29.6031 73.2723 16.5001 82.1411 7.05501C82.6207 6.54493 82.6671 5.66447 82.2417 5.08941C81.8162 4.51481 81.0814 4.46236 80.6017 4.97244C71.5202 14.6422 66.1207 28.0162 60.5859 40.7088C59.2979 43.6579 58.1066 46.6112 57.0817 49.6712C57.1745 42.7626 57.0353 33.4006 55.755 25.6737C54.8461 20.1635 53.3261 15.4739 51.017 12.8757C42.2874 3.04073 30.8928 0.933542 23.1611 7.51124C22.3991 8.15824 21.6759 8.86467 20.9913 9.62678C16.8837 1.01896 8.28556 -2.39613 0.677601 1.77039C0.0974315 2.08972 -0.161703 2.91633 0.105175 3.61531C0.372053 4.3143 1.06051 4.62293 1.64068 4.30361C8.34744 0.631386 15.9438 3.87058 19.3126 11.7474ZM19.9083 15.4456C19.7304 15.7747 19.5602 16.1107 19.3977 16.4537C19.2817 16.6941 19.1076 17.1128 18.9877 17.5602C18.9491 17.7157 18.9181 17.9603 18.9027 18.1097C19.0458 18.1914 19.1618 18.2341 19.2662 18.1724C19.4364 18.0698 19.5099 17.8141 19.595 17.5435C19.7845 16.9406 19.8812 16.1901 19.9083 15.4456Z" fill="var(--fill-0, #EDB842)"/>
</g>
</svg>
