<svg preserveAspectRatio="none" width="100%" height="100%" overflow="visible" style="display: block;" viewBox="0 0 15.5722 17.7747" fill="none" xmlns="http://www.w3.org/2000/svg">
<g id="Group">
<path id="Vector" fill-rule="evenodd" clip-rule="evenodd" d="M6.3935 2.75849C6.37416 2.2679 6.37803 1.79031 6.39737 1.34195C6.46312 -0.00635243 7.50741 -0.00170701 7.58864 0.000149521C7.75882 0.00479085 8.51696 0.0623372 8.69874 1.1136C8.71035 1.17626 8.73742 1.63017 8.74516 1.80515C8.76063 2.17832 8.76834 2.54499 8.7258 2.91305C8.76448 3.53731 8.84956 4.17967 9.01201 4.78397C9.24795 5.67604 9.63087 6.4994 10.3232 6.93801C11.5609 7.72704 13.1892 7.695 14.5507 7.89551C15.1193 7.97905 15.5525 8.54807 15.5718 9.23499C15.5873 9.92237 15.185 10.522 14.6203 10.6469C12.9185 11.0247 10.9614 12.8817 9.71593 14.3771C9.33302 14.8366 8.90371 15.931 8.4241 16.6319C8.03732 17.1935 7.60798 17.5699 7.20186 17.7194C7.04328 17.7774 6.1653 17.989 5.77079 16.8983C5.66249 16.592 5.27958 14.9879 5.24477 14.8051C5.03591 13.7571 4.73811 12.8209 4.15407 11.9873C3.64739 11.2646 3.03238 10.6334 2.29363 10.2835C1.99581 10.1424 1.68639 10.0352 1.37696 9.9247C1.26867 9.90892 0.963118 9.86251 0.854819 9.81842C0.634354 9.73023 0.471891 9.59193 0.355857 9.45408C0.135392 9.19324 0.0232122 8.8818 0.00387319 8.52721C-0.011598 8.29328 0.0154823 8.01572 0.154723 7.708C0.259154 7.4894 0.495083 7.16032 0.920542 6.94682C1.36534 6.72357 2.32071 6.51146 2.49089 6.45623C3.67444 6.07378 4.8348 5.49224 5.74373 4.48414C6.19627 3.9801 6.30067 3.43659 6.3935 2.75849ZM7.15162 6.70549C7.60802 7.84076 8.28872 8.79641 9.23633 9.39839C9.62698 9.64856 10.0524 9.83838 10.4934 9.98598C9.58443 10.7453 8.74124 11.6086 8.07211 12.4087C7.85552 12.6691 7.6196 13.0906 7.36819 13.5533C7.07424 12.3178 6.64106 11.208 5.92938 10.1925C5.50779 9.59379 5.03202 9.04656 4.50214 8.59032C5.46135 8.13454 6.37032 7.52468 7.15162 6.70549Z" fill="var(--fill-0, #EDB842)"/>
</g>
</svg>
