<svg preserveAspectRatio="none" width="100%" height="100%" overflow="visible" style="display: block;" viewBox="0 0 546.845 535.186" fill="none" xmlns="http://www.w3.org/2000/svg">
<g id="Frame 1618872693">
<g clip-path="url(#paint0_angular_0_8_clip_path)" data-figma-skip-parse="true"><g transform="matrix(0 0.0752188 -0.0811367 0 274.138 253.219)"><foreignObject x="-1031" y="-1031" width="2062" height="2062"><div xmlns="http://www.w3.org/1999/xhtml" style="background:conic-gradient(from 90deg,rgba(229, 73, 154, 1) 0deg,rgba(237, 184, 66, 1) 180deg,rgba(20, 174, 92, 1) 360deg);height:100%;width:100%;opacity:0.8"></div></foreignObject></g></g><path id="Intersect" d="M275.245 178C304.032 178 331.22 184.866 355.274 197.051C349.431 252.276 318.474 299.976 274.076 328.438C229.985 300.172 199.147 252.932 193.001 198.191C217.596 185.295 245.571 178 275.245 178Z" data-figma-gradient-fill="{&#34;type&#34;:&#34;GRADIENT_ANGULAR&#34;,&#34;stops&#34;:[{&#34;color&#34;:{&#34;r&#34;:0.89803922176361084,&#34;g&#34;:0.28627452254295349,&#34;b&#34;:0.60392159223556519,&#34;a&#34;:1.0},&#34;position&#34;:0.0},{&#34;color&#34;:{&#34;r&#34;:0.92941176891326904,&#34;g&#34;:0.72156864404678345,&#34;b&#34;:0.25882354378700256,&#34;a&#34;:1.0},&#34;position&#34;:0.50},{&#34;color&#34;:{&#34;r&#34;:0.078431375324726105,&#34;g&#34;:0.68235296010971069,&#34;b&#34;:0.36078432202339172,&#34;a&#34;:1.0},&#34;position&#34;:1.0}],&#34;stopsVar&#34;:[{&#34;color&#34;:{&#34;r&#34;:0.89803922176361084,&#34;g&#34;:0.28627452254295349,&#34;b&#34;:0.60392159223556519,&#34;a&#34;:1.0},&#34;position&#34;:0.0},{&#34;color&#34;:{&#34;r&#34;:0.92941176891326904,&#34;g&#34;:0.72156864404678345,&#34;b&#34;:0.25882354378700256,&#34;a&#34;:1.0},&#34;position&#34;:0.50},{&#34;color&#34;:{&#34;r&#34;:0.078431375324726105,&#34;g&#34;:0.68235296010971069,&#34;b&#34;:0.36078432202339172,&#34;a&#34;:1.0},&#34;position&#34;:1.0}],&#34;transform&#34;:{&#34;m00&#34;:9.9363825679802190e-15,&#34;m01&#34;:-162.27343750,&#34;m02&#34;:355.27441406250,&#34;m10&#34;:150.43750,&#34;m11&#34;:9.2116408495187055e-15,&#34;m12&#34;:178.0},&#34;opacity&#34;:0.80000001192092896,&#34;blendMode&#34;:&#34;NORMAL&#34;,&#34;visible&#34;:true}"/>
<path id="Ellipse 2" d="M369.033 1.16602C466.589 1.16609 545.68 80.5109 545.68 178.396C545.68 276.28 466.589 355.625 369.033 355.625C271.478 355.625 192.387 276.28 192.387 178.396C192.387 80.5108 271.478 1.16602 369.033 1.16602Z" stroke="var(--stroke-0, #14AE5C)" stroke-width="2.33197"/>
<path id="Ellipse 1" d="M177.812 1.16602C275.368 1.16609 354.459 80.5109 354.459 178.396C354.459 276.28 275.368 355.625 177.812 355.625C80.257 355.625 1.16611 276.28 1.16602 178.396C1.16602 80.5108 80.257 1.16602 177.812 1.16602Z" stroke="var(--stroke-0, #EDB842)" stroke-width="2.33197"/>
<path id="Ellipse 3" d="M274.589 179.562C372.144 179.562 451.235 258.906 451.235 356.791C451.235 454.676 372.144 534.02 274.589 534.021C177.033 534.021 97.9425 454.676 97.9424 356.791C97.9424 258.906 177.033 179.562 274.589 179.562Z" stroke="var(--stroke-0, #E5499A)" stroke-width="2.33197"/>
<g id="Sketch-annotation-element-stroke-icon-line-idea-lightbulb">
<path id="Vector" d="M289.168 240.699C282.439 227.231 259.77 230.195 256.532 244.99C254.578 253.917 262.817 260.164 263.881 268.524H282.766C283.321 266.289 284.451 263.63 285.234 261.996C286.86 258.601 289.16 256.382 290.033 252.595C290.864 248.991 290.768 243.902 289.168 240.699Z" stroke="var(--stroke-0, white)" stroke-width="3" stroke-miterlimit="1.5" stroke-linecap="round" stroke-linejoin="round"/>
<path id="Vector_2" fill-rule="evenodd" clip-rule="evenodd" d="M263.537 279.915C263.531 277.336 263.405 274.756 263.449 272.177C263.467 271.156 263.293 269.907 264.177 269.193C265.467 268.151 267.387 267.999 268.989 267.961C271.99 267.889 275.015 267.914 278.02 267.92C279.389 267.923 281.431 267.685 282.665 268.365C283.839 269.011 284.136 270.772 284.268 271.962C284.521 274.241 285.195 279.331 283.26 281.096C282.041 282.207 280.14 282.44 278.579 282.632C274.439 283.141 263.543 283.04 263.537 279.915Z" stroke="var(--stroke-0, white)" stroke-width="3" stroke-miterlimit="1.5" stroke-linecap="round" stroke-linejoin="round"/>
<path id="Vector_3" d="M274.573 282.855C274.606 284.259 274.623 285.67 274.512 287.072" stroke="var(--stroke-0, white)" stroke-width="3" stroke-miterlimit="1.5" stroke-linecap="round" stroke-linejoin="round"/>
<path id="Vector_4" d="M241.83 261.417C243.303 260.64 244.841 260 246.33 259.257" stroke="var(--stroke-0, white)" stroke-width="3" stroke-miterlimit="1.5" stroke-linecap="round" stroke-linejoin="round"/>
<path id="Vector_5" d="M241.83 231.206C243.474 232.25 245.047 233.404 246.695 234.439" stroke="var(--stroke-0, white)" stroke-width="3" stroke-miterlimit="1.5" stroke-linecap="round" stroke-linejoin="round"/>
<path id="Vector_6" d="M274.277 218.826C274.22 216.758 274.232 214.705 274.298 212.638" stroke="var(--stroke-0, white)" stroke-width="3" stroke-miterlimit="1.5" stroke-linecap="round" stroke-linejoin="round"/>
<path id="Vector_7" d="M299.734 232.915C301.798 231.549 303.924 230.265 306.023 228.954" stroke="var(--stroke-0, white)" stroke-width="3" stroke-miterlimit="1.5" stroke-linecap="round" stroke-linejoin="round"/>
<path id="Vector_8" d="M296.131 261.092C297.723 262.519 299.321 263.929 300.862 265.411" stroke="var(--stroke-0, white)" stroke-width="3" stroke-miterlimit="1.5" stroke-linecap="round" stroke-linejoin="round"/>
</g>
</g>
<defs>
<clipPath id="paint0_angular_0_8_clip_path"><path id="Intersect" d="M275.245 178C304.032 178 331.22 184.866 355.274 197.051C349.431 252.276 318.474 299.976 274.076 328.438C229.985 300.172 199.147 252.932 193.001 198.191C217.596 185.295 245.571 178 275.245 178Z"/></clipPath></defs>
</svg>
