<svg preserveAspectRatio="none" width="100%" height="100%" overflow="visible" style="display: block;" viewBox="0 0 1880 309.29" fill="none" xmlns="http://www.w3.org/2000/svg">
<path id="Logo" d="M362.135 84.8633C382.297 84.8633 400.041 89.5558 415.364 98.9404C430.957 108.057 443.054 121.062 451.656 137.954C460.528 154.578 464.964 174.286 464.964 197.077C464.964 200.027 464.829 202.842 464.561 205.523V213.97H322.001C323.611 226.515 327.175 236.302 332.698 243.33C340.494 253.251 351.248 258.211 364.958 258.211C373.829 258.211 381.491 256.2 387.943 252.178C394.664 247.888 399.368 241.453 402.057 232.873L459.318 247.352C454.211 265.853 443.323 280.869 426.655 292.398C409.988 303.66 388.212 309.29 361.329 309.29C341.436 309.29 323.692 304.598 308.1 295.214C292.776 285.829 280.814 272.69 272.211 255.798C263.608 238.906 259.307 219.332 259.307 197.077C259.307 174.554 263.608 154.846 272.211 137.954C281.082 121.062 293.314 108.057 308.906 98.9404C324.498 89.5559 342.241 84.8633 362.135 84.8633ZM546.177 90.4941H602.632V139.965H546.177V222.013C546.177 232.738 549 240.916 554.646 246.547C560.291 251.91 568.222 254.591 578.438 254.591C583.276 254.591 587.712 254.189 591.744 253.385C596.045 252.312 600.347 251.24 604.648 250.167V303.659C598.465 305.536 591.878 306.877 584.889 307.682C578.168 308.754 570.507 309.29 561.904 309.29C538.516 309.29 519.966 302.586 506.256 289.18C492.814 275.773 486.093 255.664 486.093 228.851V139.965H459.479V90.4941H486.093V46.252L546.177 34.5889V90.4941ZM920.304 84.8633C940.466 84.8634 958.209 89.5559 973.532 98.9404C989.125 108.057 1001.22 121.062 1009.82 137.954C1018.7 154.578 1023.13 174.286 1023.13 197.077C1023.13 200.027 1023 202.842 1022.73 205.523V213.969H880.169C881.779 226.514 885.343 236.302 890.866 243.33C898.662 253.251 909.416 258.211 923.126 258.211C931.997 258.211 939.659 256.2 946.111 252.178C952.832 247.888 957.536 241.452 960.225 232.872L1017.49 247.352C1012.38 265.853 1001.49 280.868 984.823 292.397C968.156 303.659 946.38 309.29 919.497 309.29C899.603 309.29 881.86 304.598 866.268 295.213C850.944 285.828 838.981 272.69 830.379 255.798C821.776 238.906 817.475 219.332 817.475 197.077C817.475 174.554 821.776 154.846 830.379 137.954C839.25 121.062 851.482 108.057 867.074 98.9404C882.667 89.5558 900.41 84.8633 920.304 84.8633ZM1487.92 84.8633C1508.09 84.8633 1525.83 89.5559 1541.15 98.9404C1556.75 108.057 1568.84 121.062 1577.45 137.954C1586.32 154.578 1590.75 174.286 1590.75 197.077C1590.75 200.027 1590.62 202.842 1590.35 205.523V213.969H1447.79C1449.4 226.514 1452.96 236.302 1458.49 243.33C1466.28 253.251 1477.04 258.211 1490.75 258.211C1499.62 258.211 1507.28 256.2 1513.73 252.178C1520.45 247.888 1525.16 241.452 1527.85 232.872L1585.11 247.352C1580 265.853 1569.11 280.868 1552.44 292.397C1535.78 303.659 1514 309.29 1487.12 309.29C1467.22 309.29 1449.48 304.597 1433.89 295.213C1418.57 285.828 1406.6 272.69 1398 255.798C1389.4 238.906 1385.1 219.332 1385.1 197.077C1385.1 174.554 1389.4 154.846 1398 137.954C1406.87 121.062 1419.1 108.057 1434.7 98.9404C1450.29 89.5558 1468.03 84.8633 1487.92 84.8633ZM1880 303.659H1819.92V269.044C1817.31 274.661 1814.22 279.765 1810.64 284.354C1797.74 300.978 1780.53 309.29 1759.02 309.29C1742.63 309.29 1728.24 304.866 1715.88 296.018C1703.78 286.901 1694.37 274.03 1687.65 257.406C1680.93 240.514 1677.57 220.404 1677.57 197.077C1677.57 173.482 1680.93 153.371 1687.65 136.747C1694.37 120.123 1703.78 107.386 1715.88 98.5381C1728.24 89.4217 1742.63 84.8634 1759.02 84.8633C1780.53 84.8633 1797.74 93.1756 1810.64 109.8C1814.22 114.315 1817.31 119.365 1819.92 124.948V16.0879H1880V303.659ZM1253.11 10.0547C1261.44 10.0547 1268.7 10.5915 1274.89 11.6641C1281.07 12.4684 1286.98 13.6744 1292.63 15.2832V64.7539C1288.6 63.6814 1284.43 62.8771 1280.13 62.3408C1275.83 61.5364 1270.99 61.1338 1265.61 61.1338C1256.47 61.1338 1249.35 63.2794 1244.24 67.5693C1239.4 71.5913 1236.98 77.7583 1236.98 86.0703V90.4951H1372.47V303.66H1312.39V139.965H1236.98V303.66H1176.9V139.965H1163.22V153.64H1134.59C1122.23 153.64 1112.68 156.588 1105.96 162.487C1099.24 168.386 1095.88 179.112 1095.88 194.663V303.659H1035.8V90.4941H1095.88V140.247C1100.77 123.158 1108.43 109.79 1118.87 100.146C1129.89 89.9576 1144.67 84.8633 1163.22 84.8633V90.4951H1176.9V88.0811C1176.9 62.0724 1183.62 42.633 1197.06 29.7627C1210.77 16.6242 1229.45 10.0547 1253.11 10.0547ZM183.075 26.1426L272.193 303.659H205.254L185.863 240.112H84.5664L65.7295 303.659H0L89.1182 26.1426H183.075ZM671.525 125.378C677.308 112.726 685.104 102.974 694.914 96.125C705.936 88.6173 718.84 84.8633 733.626 84.8633C747.605 84.8633 759.971 88.2149 770.725 94.918C781.478 101.621 789.812 111.275 795.727 123.877C801.91 136.479 805.001 151.629 805.001 169.325V303.659H744.917V181.391C744.917 167.18 741.422 156.454 734.433 149.215C727.712 141.707 718.975 137.953 708.222 137.953C697.468 137.953 688.596 141.707 681.606 149.215C674.886 156.454 671.525 167.18 671.525 181.391V303.659H611.441V16.0879H671.525V125.378ZM1663.5 303.659H1603.42V16.0879H1663.5V303.659ZM1781.61 138.758C1768.7 138.758 1758.35 143.719 1750.56 153.64C1743.03 163.292 1739.27 177.772 1739.27 197.077C1739.27 216.382 1743.03 230.995 1750.56 240.916C1758.35 250.569 1768.7 255.395 1781.61 255.396C1794.51 255.396 1804.73 250.569 1812.25 240.916C1820.05 230.995 1823.95 216.382 1823.95 197.077C1823.95 177.772 1820.05 163.292 1812.25 153.64C1804.73 143.719 1794.51 138.758 1781.61 138.758ZM100.899 185.011H169.049L134.48 71.7246L100.899 185.011ZM362.135 135.139C349.769 135.139 339.822 139.965 332.295 149.617C327.736 155.301 324.562 163.345 322.764 173.749H402.015C400.289 163.123 397.214 154.944 392.782 149.215C385.793 139.83 375.576 135.139 362.135 135.139ZM920.304 135.139C907.937 135.139 897.99 139.965 890.463 149.617C885.904 155.301 882.729 163.345 880.932 173.749H960.183C958.457 163.123 955.381 154.944 950.95 149.215C943.961 139.831 933.745 135.139 920.304 135.139ZM1487.92 135.139C1475.56 135.139 1465.61 139.964 1458.08 149.617C1453.53 155.301 1450.35 163.345 1448.55 173.749H1527.8C1526.08 163.123 1523 154.944 1518.57 149.215C1511.58 139.831 1501.37 135.139 1487.92 135.139ZM1342.23 0C1352.44 6.73472e-06 1360.91 3.21743 1367.63 9.65234C1374.62 16.0875 1378.12 24.6683 1378.12 35.3936C1378.12 46.1188 1374.62 54.6986 1367.63 61.1338C1360.91 67.3008 1352.44 70.3848 1342.23 70.3848C1332.28 70.3848 1323.81 67.3008 1316.82 61.1338C1310.1 54.6987 1306.74 46.1186 1306.74 35.3936C1306.74 24.6683 1310.1 16.0875 1316.82 9.65234C1323.81 3.21715 1332.28 0 1342.23 0Z" fill="var(--fill-0, #66640F)"/>
</svg>
