<svg preserveAspectRatio="none" width="100%" height="100%" overflow="visible" style="display: block;" viewBox="0 0 320 320" fill="none" xmlns="http://www.w3.org/2000/svg">
<g id="Group 5">
<path id="Ellipse 41" opacity="0.1" d="M320 160C320 248.366 248.366 320 160 320C71.6344 320 2.29189e-06 248.366 2.29189e-06 160C2.29189e-06 71.6345 71.6344 8.96051e-05 160 8.96051e-05C248.366 8.96051e-05 320 71.6345 320 160ZM21.0785 160C21.0785 236.724 83.2758 298.922 160 298.922C236.724 298.922 298.922 236.724 298.922 160C298.922 83.2759 236.724 21.0786 160 21.0786C83.2758 21.0786 21.0785 83.2759 21.0785 160Z" fill="var(--fill-0, #000614)"/>
<path id="Ellipse 42" d="M259.724 48.6729C263.607 44.3373 263.261 37.6438 258.679 34.0539C237.314 17.3138 211.99 6.24685 185.069 1.97615C154.67 -2.84622 123.526 1.20163 95.3697 13.6344C67.2138 26.0671 43.2413 46.357 26.3268 72.0713C9.41217 97.7857 0.273345 127.833 0.00603654 158.611C-0.261272 189.388 8.35428 219.59 24.8197 245.594C41.2851 271.598 64.9015 292.301 92.8372 305.221C120.773 318.141 151.842 322.729 182.32 318.436C209.311 314.633 234.824 304.008 256.477 287.641C261.12 284.132 261.583 277.445 257.775 273.043V273.043C253.967 268.64 247.333 268.194 242.655 271.657C224.096 285.396 202.355 294.327 179.38 297.563C152.917 301.291 125.941 297.307 101.685 286.09C77.4298 274.872 56.9247 256.896 42.6284 234.318C28.3322 211.739 20.8516 185.516 21.0837 158.794C21.3158 132.071 29.2507 105.982 43.9369 83.6551C58.6232 61.3284 79.4375 43.7115 103.884 32.9167C128.331 22.1218 155.372 18.6072 181.766 22.7943C204.681 26.4295 226.264 35.7362 244.582 49.7953C249.199 53.3392 255.84 53.0085 259.724 48.6729V48.6729Z" fill="var(--fill-0, #2569ED)"/>
</g>
</svg>
