<svg preserveAspectRatio="none" width="100%" height="100%" overflow="visible" style="display: block;" viewBox="0 0 320 320" fill="none" xmlns="http://www.w3.org/2000/svg">
<g id="Group 6">
<path id="Ellipse 41" opacity="0.1" d="M320 160C320 248.366 248.366 320 160 320C71.6344 320 0 248.366 0 160C0 71.6346 71.6344 0.000129864 160 0.000129864C248.366 0.000129864 320 71.6346 320 160ZM21.0785 160C21.0785 236.724 83.2758 298.922 160 298.922C236.724 298.922 298.922 236.724 298.922 160C298.922 83.2759 236.724 21.0786 160 21.0786C83.2758 21.0786 21.0785 83.2759 21.0785 160Z" fill="var(--fill-0, #000614)"/>
<path id="Ellipse 42" d="M259.724 48.673C263.607 44.3374 263.261 37.6437 258.679 34.0538C236.314 16.5308 209.63 5.23804 181.347 1.43053C153.063 -2.37698 124.343 1.4571 98.1403 12.442C92.7722 14.6925 90.6681 21.0562 93.267 26.2645V26.2645C95.8658 31.4728 102.182 33.5478 107.573 31.3511C129.976 22.2211 154.438 19.0767 178.534 22.3206C202.631 25.5645 225.391 35.0659 244.582 49.7954C249.199 53.3393 255.84 53.0085 259.724 48.673V48.673Z" fill="var(--fill-0, #2569ED)"/>
</g>
</svg>
