<svg preserveAspectRatio="none" width="100%" height="100%" overflow="visible" style="display: block;" viewBox="0 0 320 320" fill="none" xmlns="http://www.w3.org/2000/svg">
<g id="Group 4">
<path id="Ellipse 41" opacity="0.1" d="M320 160C320 248.366 248.366 320 160 320C71.6344 320 2.20052e-07 248.366 2.20052e-07 160C2.20052e-07 71.6344 71.6344 6.08197e-06 160 6.08197e-06C248.366 6.08197e-06 320 71.6344 320 160ZM21.0785 160C21.0785 236.724 83.2758 298.922 160 298.922C236.724 298.922 298.922 236.724 298.922 160C298.922 83.2758 236.724 21.0785 160 21.0785C83.2758 21.0785 21.0785 83.2758 21.0785 160Z" fill="var(--fill-0, #000614)"/>
<path id="Ellipse 42" d="M259.724 48.6728C263.607 44.3373 263.261 37.6438 258.679 34.054C239.993 19.4134 218.246 9.08576 194.997 3.87428C168.312 -2.10713 140.541 -1.14945 114.332 6.6559C88.1231 14.4612 64.3523 28.8537 45.2885 48.4596C26.2246 68.0655 12.504 92.2303 5.43621 118.647C-1.63154 145.065 -1.81049 172.852 4.91642 199.358C11.6433 225.864 25.0516 250.204 43.8614 270.054C62.6711 289.903 86.2546 304.601 112.361 312.743C135.106 319.837 159.105 321.749 182.606 318.395C188.368 317.573 192.01 311.946 190.81 306.251V306.251C189.61 300.555 184.022 296.953 178.252 297.717C158.288 300.363 137.942 298.642 118.637 292.621C95.9698 285.551 75.4933 272.79 59.1615 255.555C42.8298 238.32 31.1879 217.187 25.3472 194.173C19.5065 171.159 19.6619 147.032 25.7985 124.095C31.9352 101.158 43.8482 80.177 60.4006 63.154C76.953 46.131 97.5922 33.6346 120.348 26.8575C143.104 20.0805 167.217 19.249 190.386 24.4424C210.119 28.8657 228.606 37.5337 244.582 49.7953C249.199 53.3392 255.84 53.0084 259.724 48.6728V48.6728Z" fill="var(--fill-0, #2569ED)"/>
</g>
</svg>
