<svg preserveAspectRatio="none" width="100%" height="100%" overflow="visible" style="display: block;" viewBox="0 0 89.8594 8.19602" fill="none" xmlns="http://www.w3.org/2000/svg">
<path id="Vector" d="M62.3502 7.60178C52.1584 5.4228 40.7811 6.60513 30.4692 6.80524C27.5041 6.86284 24.4704 7.24689 21.5082 7.08244C21.1218 7.06108 19.4362 6.98094 19.12 6.55271C19.0787 6.49698 20.3931 6.27723 21.0317 6.18324C22.2734 6.00046 23.5145 5.86561 24.7551 5.67257C28.0168 5.16537 31.3355 4.9179 34.6258 4.68993C43.0719 4.10519 58.1814 2.30319 66.436 4.84442C66.845 4.97032 65.5806 4.82276 65.1529 4.81106C64.4501 4.792 63.7476 4.76442 63.0447 4.74233C60.7521 4.67058 58.44 4.54295 56.1471 4.56301C48.7579 4.62726 41.3425 4.31858 33.955 4.59506C31.7321 4.67837 29.5163 4.85134 27.2925 4.91819C26.0043 4.95689 26.062 4.98966 24.7307 4.94447C24.1535 4.92483 22.5529 5.09852 23.0094 4.74464C23.8135 4.12121 26.3266 4.27715 27.2985 4.14995C31.7365 3.56983 36.1634 2.81226 40.6241 2.40526C52.0614 1.36168 63.7049 1.35922 75.1684 1.79583C79.8578 1.97443 84.5958 1.28358 89.2652 1.84175C77.9353 0.378459 66.1585 0.586219 54.7665 0.628523C41.9401 0.676168 29.1281 0.679344 16.3014 0.949623C11.0356 1.06051 5.87597 2.06334 0.594124 1.99014" stroke="var(--stroke-0, #14AE5C)" stroke-width="1.18825" stroke-miterlimit="1.5" stroke-linecap="round" stroke-linejoin="round"/>
</svg>
