<svg preserveAspectRatio="none" width="100%" height="100%" overflow="visible" style="display: block;" viewBox="0 0 605 128" fill="none" xmlns="http://www.w3.org/2000/svg">
<g id="Frame 1618872717">
<rect id="Rectangle 945" x="2" y="2" width="427" height="124" stroke="var(--stroke-0, #E5499A)" stroke-width="4"/>
<path id="Arrow 4" d="M420.333 64C420.333 69.891 425.109 74.6667 431 74.6667C436.891 74.6667 441.667 69.891 441.667 64C441.667 58.109 436.891 53.3333 431 53.3333C425.109 53.3333 420.333 58.109 420.333 64ZM604.414 65.4142C605.195 64.6332 605.195 63.3668 604.414 62.5858L591.686 49.8579C590.905 49.0768 589.639 49.0768 588.858 49.8579C588.077 50.6389 588.077 51.9052 588.858 52.6863L600.172 64L588.858 75.3137C588.077 76.0948 588.077 77.3611 588.858 78.1421C589.639 78.9232 590.905 78.9232 591.686 78.1421L604.414 65.4142ZM431 64V66H603V64V62H431V64Z" fill="var(--stroke-0, #E5499A)"/>
</g>
</svg>
