<svg preserveAspectRatio="none" width="100%" height="100%" overflow="visible" style="display: block;" viewBox="0 0 528 216" fill="none" xmlns="http://www.w3.org/2000/svg">
<g id="Frame 1618872718">
<rect id="Rectangle 946" x="176" y="2" width="350" height="212" stroke="var(--stroke-0, #14AE5C)" stroke-width="4"/>
<path id="Arrow 5" d="M0.585786 106.586C-0.195262 107.367 -0.195262 108.633 0.585786 109.414L13.3137 122.142C14.0948 122.923 15.3611 122.923 16.1421 122.142C16.9232 121.361 16.9232 120.095 16.1421 119.314L4.82843 108L16.1421 96.6863C16.9232 95.9052 16.9232 94.6389 16.1421 93.8579C15.3611 93.0768 14.0948 93.0768 13.3137 93.8579L0.585786 106.586ZM163.333 108C163.333 113.891 168.109 118.667 174 118.667C179.891 118.667 184.667 113.891 184.667 108C184.667 102.109 179.891 97.3333 174 97.3333C168.109 97.3333 163.333 102.109 163.333 108ZM2 108V110H174V108V106H2V108Z" fill="var(--stroke-0, #14AE5C)"/>
</g>
</svg>
