<svg preserveAspectRatio="none" width="100%" height="100%" overflow="visible" style="display: block;" viewBox="0 0 377.686 202" fill="none" xmlns="http://www.w3.org/2000/svg">
<g id="Frame 1618872719">
<path id="Arrow 6" d="M0.585786 99.5858C-0.195262 100.367 -0.195262 101.633 0.585787 102.414L13.3137 115.142C14.0948 115.923 15.3611 115.923 16.1421 115.142C16.9232 114.361 16.9232 113.095 16.1421 112.314L4.82843 101L16.1421 89.6863C16.9232 88.9052 16.9232 87.6389 16.1421 86.8579C15.3611 86.0768 14.0948 86.0768 13.3137 86.8579L0.585786 99.5858ZM195.333 101C195.333 106.891 200.109 111.667 206 111.667C211.891 111.667 216.667 106.891 216.667 101C216.667 95.1089 211.891 90.3333 206 90.3333C200.109 90.3333 195.333 95.1089 195.333 101ZM2 101L2 103L206 103L206 101L206 99L2 99L2 101Z" fill="var(--stroke-0, #EDB842)"/>
<g id="Sketch-annotation-element-stroke-line-highlight-eclipse">
<path id="Vector" d="M337.387 72.1025C310.521 56.0765 258.861 58.7878 232.344 72.8114C220.267 79.1982 197.998 97.7041 211.549 115.176C213.939 118.258 216.844 120.761 219.85 122.928C252.929 146.769 299.066 144.341 334.568 130.075C339.863 127.948 345.073 125.422 349.866 121.99C353.451 119.422 356.917 116.24 359.709 112.527C367.882 101.655 365.747 90.7147 356.954 81.4982C346.759 70.8123 332.818 67.5008 319.664 65.6873C308.162 64.1015 296.673 63.797 285.116 64.4442C263.442 65.6578 238.464 67.5889 220.286 82.1984C212.346 88.5796 203.816 102.215 210.621 113.251C217.996 125.21 235.386 129.082 247.082 131.606C278.635 138.414 328.56 135.038 357.301 117.173C360.4 115.246 363.54 113.451 366.313 110.918C368.503 108.916 370.601 106.633 372.421 104.163C385.315 86.6568 356.541 75.6497 346.393 73.7594C314.469 67.8129 267.22 59.2315 237.82 75.0503" stroke="var(--stroke-0, #EDB842)" stroke-width="4" stroke-miterlimit="1.5" stroke-linecap="round" stroke-linejoin="round"/>
</g>
</g>
</svg>
