<svg preserveAspectRatio="none" width="100%" height="100%" overflow="visible" style="display: block;" viewBox="0 0 22.7314 24.5134" fill="none" xmlns="http://www.w3.org/2000/svg">
<path id="Information" d="M11.3657 24.3257C8.91769 24.3257 6.84769 23.7317 5.15569 22.5437C3.49969 21.3557 2.25769 19.8437 1.42969 18.0077C0.601693 16.1357 0.187693 14.1917 0.187693 12.1757C0.187693 10.1597 0.601693 8.25169 1.42969 6.45169C2.25769 4.61569 3.49969 3.12169 5.15569 1.96969C6.81169 0.781693 8.88169 0.187693 11.3657 0.187693C13.8497 0.187693 15.9197 0.781693 17.5757 1.96969C19.2317 3.12169 20.4737 4.61569 21.3017 6.45169C22.1297 8.28769 22.5437 10.2137 22.5437 12.2297C22.5437 14.2457 22.1297 16.1897 21.3017 18.0617C20.4737 19.8977 19.2317 21.4097 17.5757 22.5977C15.9197 23.7497 13.8497 24.3257 11.3657 24.3257ZM11.3657 23.0297C13.5257 23.0297 15.3257 22.5077 16.7657 21.4637C18.2417 20.4197 19.3397 19.0697 20.0597 17.4137C20.7797 15.7577 21.1397 14.0297 21.1397 12.2297C21.1397 10.4297 20.7797 8.71969 20.0597 7.09969C19.3397 5.44369 18.2597 4.09369 16.8197 3.04969C15.3797 2.00569 13.5617 1.48369 11.3657 1.48369C9.20569 1.48369 7.38769 2.00569 5.91169 3.04969C4.47169 4.09369 3.39169 5.42569 2.67169 7.04569C1.95169 8.66569 1.59169 10.3757 1.59169 12.1757C1.59169 13.9757 1.95169 15.7037 2.67169 17.3597C3.42769 19.0157 4.52569 20.3837 5.96569 21.4637C7.40569 22.5077 9.20569 23.0297 11.3657 23.0297ZM14.8217 19.4117C14.1377 19.4117 13.6337 19.2137 13.3097 18.8177C12.9857 18.3857 12.8237 17.8637 12.8237 17.2517V14.6057C12.8237 13.8137 12.6617 13.2737 12.3377 12.9857C12.0497 12.6977 11.4917 12.5537 10.6637 12.5537H9.74569V18.1697L11.5817 18.3857V19.1957H6.18169V18.3857L7.96369 18.1697V5.58769L6.18169 5.37169V4.56169H11.4737C13.0577 4.56169 14.1737 4.99369 14.8217 5.85769C15.4697 6.68569 15.7937 7.53169 15.7937 8.39569C15.7937 9.36769 15.4877 10.2137 14.8757 10.9337C14.2997 11.6177 13.5257 11.9597 12.5537 11.9597H12.3917V12.1217H12.4997C13.8677 12.1217 14.5517 12.8777 14.5517 14.3897V16.8737C14.5517 17.0897 14.5697 17.3417 14.6057 17.6297C14.6777 17.8817 14.8757 18.0077 15.1997 18.0077C15.6317 18.0077 15.8477 17.6837 15.8477 17.0357V14.5517H16.8197V17.2517C16.8197 17.7197 16.6937 18.2057 16.4417 18.7097C16.1897 19.1777 15.6497 19.4117 14.8217 19.4117ZM9.74569 11.4197H10.9877C11.9597 11.4197 12.6977 11.2397 13.2017 10.8797C13.7057 10.5197 13.9577 9.85369 13.9577 8.88169V8.17969C13.9577 6.37969 12.9677 5.47969 10.9877 5.47969H9.74569V11.4197Z" fill="var(--fill-0, #2683EB)" stroke="var(--stroke-0, #2683EB)" stroke-width="0.375386"/>
</svg>
